<svg width="598" height="237" viewBox="0 0 598 237" fill="none" xmlns="http://www.w3.org/2000/svg">
<rect width="598" height="237" fill="white"/>
<path d="M198.56 105.313C198.868 97.7553 197.024 90.3817 192.6 81.4515C187.582 71.3128 180.188 64.226 170.582 60.3958L169.599 60.0067C148.277 51.9572 124.087 57.3235 109.422 73.361C92.1349 92.2866 92.3807 121.576 109.954 141.485C119.171 151.91 130.375 157.768 143.258 158.854C154.933 159.837 167.817 156.969 181.56 150.354C182.728 149.801 183.895 148.899 184.796 147.896C185.452 147.158 185.923 146.421 186.169 145.704C183.485 141.546 181.253 138.392 179.307 136.098C177.914 134.439 176.706 133.251 175.702 132.555C175.129 132.145 174.801 132.042 174.678 132.022L162.778 138.208C156.265 141.587 148.44 142.099 140.698 139.662C134.041 137.552 128.225 133.456 124.661 128.397H124.64L123.923 127.311C123.022 125.877 122.428 123.542 122.428 121.535C122.428 118.463 123.78 116.292 126.115 115.595L126.77 115.493L186.312 115.104C190.716 115.083 194.402 114.182 196.655 112.605C197.188 112.236 197.68 111.233 198.007 109.86C198.376 108.283 198.478 106.522 198.54 105.313H198.56ZM171.995 96.2192C171.319 97.3457 170.336 98.2674 169.086 98.9023V99.6397H128.429C126.996 99.6602 125.562 98.9023 124.824 98.4312C124.108 97.9806 122.817 97.0589 122.203 95.8505C121.937 95.3179 121.773 94.683 121.691 93.9252C121.65 93.3517 121.65 92.7167 121.732 92.0818C121.814 91.4468 121.936 90.8119 122.121 90.2588C122.367 89.5215 122.674 88.9275 123.084 88.4564C128.696 81.9226 134.861 77.3755 140.883 75.3478C148.236 72.8695 155.281 73.955 161.815 78.5635C166.792 82.0865 170.295 86.0395 172.22 90.3408C173.101 92.3071 172.999 94.4372 171.954 96.2192H171.995Z" fill="black"/>
<path d="M562.139 84.6872L561.852 84.0113C556.097 71.2509 544.913 62.0544 530.412 58.1628C523.96 56.4218 517.365 56.0941 511.753 55.9917C511.445 55.9917 511.138 55.9917 510.851 55.9917C495.92 55.9917 482.402 62.5665 472.734 74.5486C462.944 86.6945 459.031 102.22 462.001 117.172C464.971 132.022 474.475 144.802 488.096 152.217C504.83 161.311 525.537 161.106 542.148 151.664C564.166 139.129 572.953 109.716 562.139 84.7077V84.6872ZM539.055 126.143C534.57 134.52 526.561 139.661 517.098 140.235C516.382 140.276 515.665 140.296 514.968 140.296C505.546 140.296 497.436 136.466 491.967 129.359C484.02 119.056 482.074 105.395 486.887 93.6789C491.168 83.2535 499.607 75.9823 509.418 74.2823L510.012 74.1799C522.178 72.3365 534.181 79.1161 539.834 91.0572C545.2 102.384 544.913 115.165 539.055 126.143Z" fill="black"/>
<path d="M276.106 110.822C270.432 105.579 262.977 102.63 255.808 100.069L238.357 93.8428C234.732 92.5524 231.946 89.9307 230.676 86.674C229.488 83.6017 229.734 80.2426 231.373 77.2112C233.032 74.1184 235.469 72.0497 238.459 71.2304C241.081 70.4931 244.01 70.7184 247.123 71.9063L247.697 72.1316L266.233 79.8739C267.093 80.2426 268.466 80.345 269.818 80.1811C271.415 79.9763 272.439 79.4847 272.89 79.0751C275.512 76.6787 277.703 73.4425 278.604 70.6569C279.178 68.8955 279.526 66.5605 277.847 65.5159C266.151 58.1218 251.507 54.8037 238.644 56.6266C225.003 58.5724 214.884 65.8231 210.173 77.0474C207.798 82.7209 207.879 89.3162 210.378 95.1536C212.857 100.95 217.547 105.497 223.221 107.648L237.476 113.055C242.105 114.898 248.987 118.196 254.456 121.944C257.651 124.136 259.986 126.246 261.42 128.191C263.489 130.997 263.837 133.722 262.424 136.036L262.198 136.384C259.699 140.153 255.029 141.607 251.568 142.181C239.483 144.147 227.071 141.279 215.642 133.906C215.048 133.537 213.799 133.087 212.549 132.964C212.345 132.943 212.14 132.923 211.935 132.923C211.628 132.923 211.361 132.943 211.136 133.005C210.931 133.046 210.87 133.107 210.87 133.107L204.172 142.467C203.865 142.898 203.599 143.799 203.722 144.843C203.844 145.847 204.254 146.421 204.582 146.605C232.397 162.847 258.552 162.663 276.351 146.072L276.782 145.683C281.677 140.931 284.319 134.766 284.258 128.335C284.176 121.801 281.288 115.574 276.126 110.802L276.106 110.822Z" fill="black"/>
<path d="M28.1484 55.1116L27.6364 55.2754C25.4448 56.0333 24.052 57.8767 23.499 60.7237C22.9255 63.6731 23.3965 67.3804 24.7689 70.6166C24.7689 70.6166 24.8303 70.719 25.0351 70.8829C25.3014 71.1082 25.6701 71.3744 26.2231 71.6817C26.5713 71.8865 27.0014 72.1323 27.4725 72.3985C28.3532 72.8901 29.3569 73.4431 30.2581 74.0166C33.0027 75.7781 36.669 78.8095 36.71 84.7083L36.9558 125.98C37.0172 134.931 39.8642 142.98 44.9643 148.654C53.0547 157.645 65.9176 161.107 78.5346 157.707L79.4358 157.441C83.7985 156.13 87.7311 153.959 92.0733 151.46L92.4829 151.194C93.2203 150.681 93.7324 150.006 93.9577 149.268C94.2239 148.387 94.101 147.425 93.589 146.462L88.96 137.511C88.448 136.528 87.7516 135.791 86.9528 135.381C86.072 134.931 85.007 134.828 83.819 135.095H83.6551V135.135L72.2875 137.655L71.8164 137.573C64.4224 136.201 61.3091 128.397 60.3259 125.099L59.9777 123.932C56.9054 112.892 57.0078 100.336 60.2645 86.6132C61.4934 81.4312 65.1392 77.5805 70.014 76.2902L80.8286 73.4431C81.5864 73.2383 82.4876 72.6034 83.225 71.7431C84.0648 70.76 84.413 69.8178 84.4335 69.2648L84.9455 61.5635C85.0479 60.1912 84.6997 59.0032 83.9624 58.1634C83.225 57.3032 82.119 56.8321 80.7467 56.7706C79.825 56.7297 78.9237 56.7297 78.002 56.7092H77.6129C76.5478 56.7092 75.5032 56.6682 74.4586 56.6273C72.6972 56.5658 70.4236 56.402 68.273 55.7465C65.9995 55.0706 64.2175 53.9646 62.8043 52.3874C61.2476 50.6465 60.203 48.3729 59.6295 45.4645C58.8512 41.6343 58.9331 37.7427 58.9741 34.6089C58.9741 33.7691 58.9946 32.9703 58.9946 32.233C58.9946 30.3896 58.8717 29.2221 58.6054 28.4643C58.4006 27.8498 58.1958 27.7679 57.9295 27.7064C53.362 26.6004 46.9101 25.4124 42.0968 26.0678C40.1305 26.3341 38.6353 26.9076 37.816 27.7269C37.304 28.2389 36.628 29.1606 36.9148 31.3113C37.5293 36.1246 37.9799 41.1632 37.0786 45.403C36.5666 47.8199 35.6244 49.8477 34.2726 51.4248C32.7569 53.2272 30.6882 54.4766 28.1689 55.1525L28.1484 55.1116Z" fill="black"/>
<path d="M463.537 59.8833C463.537 59.5761 463.373 58.8797 462.984 58.0809C462.595 57.2821 462.185 56.8315 462.063 56.7291C461.94 56.6471 461.284 56.3399 460.281 56.1351C459.851 56.0531 459.441 55.9917 459.113 55.9917C458.826 55.9917 458.704 55.9917 458.704 55.9917L442.277 61.8496C440.106 62.6279 438.078 62.6894 436.091 62.0544C434.371 61.5014 432.916 60.4978 431.688 59.5761L431.196 59.2074C428.963 57.5279 427.202 56.176 424.437 56.2989L408.788 56.7905C408.522 56.9748 408.317 57.1797 408.133 57.405C407.928 57.6508 407.744 57.9375 407.621 58.2038C407.519 58.4086 407.519 58.511 407.519 58.511L407.314 112.154L406.412 132.452L406.331 156.088C406.331 156.088 406.474 156.703 407.109 157.338C407.723 157.973 408.256 158.136 408.358 158.136L425.44 158.71C425.44 158.71 425.686 158.71 426.198 158.485C426.69 158.3 427.222 158.013 427.693 157.686C428.165 157.358 428.574 157.03 428.82 156.723C428.881 156.641 428.922 156.58 428.963 156.539L429.168 121.432V120.613V119.138C429.23 108.918 431.155 99.4344 434.924 90.9343C436.706 86.8993 439.348 83.8065 442.768 81.7788C446.005 79.833 449.794 78.8908 454.3 78.8908H454.361C456.942 78.8908 459.257 78.1534 460.854 76.8426C462.493 75.4703 463.353 73.5654 463.394 71.1895L463.558 59.8628L463.537 59.8833Z" fill="black"/>
<path d="M392.71 123.337C397.155 109.02 395.434 92.88 388.102 80.0991H387.098V78.4196C378.844 65.27 364.199 57.3229 345.806 56.0735C344.229 55.9711 342.693 55.9097 341.156 55.9097C325.672 55.9097 312.604 61.4603 303.162 72.0906C291.835 84.851 287.329 100.069 290.135 116.086L290.381 117.377C293.187 131.161 302.015 143.696 313.997 150.906C330.035 160.553 349.698 161.577 366.595 153.63C379.192 147.711 388.45 136.958 392.669 123.358L392.71 123.337ZM363.011 132.103C357.276 138.514 350.046 140.296 343.819 140.296C340.255 140.296 336.999 139.723 334.541 139.088C326.123 136.937 318.913 129.932 315.226 120.347C309.675 105.886 313.362 90.3197 324.607 80.6726C335.954 70.9641 351.705 71.6809 362.048 82.4136L362.622 83.0281C374.993 96.4849 375.157 118.503 362.99 132.124L363.011 132.103Z" fill="black"/>
<path d="M523.387 173.826C521.707 173.581 520.13 173.56 518.287 173.826L518.082 184.395L517.16 184.539C516.382 184.661 515.419 184.743 514.538 184.702C513.822 184.702 512.777 184.62 511.999 184.354L511.487 184.19C510.422 183.863 509.356 183.719 508.332 183.719C504.564 183.719 501.266 185.808 499.279 189.618C495.92 196.07 497.763 203.669 503.703 207.663C506.366 209.465 509.438 209.752 513.064 208.544L513.719 208.339H513.74C516.464 207.642 518.942 208.052 520.765 208.339C521.031 208.38 521.298 208.421 521.523 208.462C522.035 208.544 522.404 208.585 522.711 208.585H522.731C523.039 208.585 523.202 208.544 523.284 208.503C523.346 208.482 523.551 208.298 523.551 207.335L523.387 173.847V173.826ZM515.808 203.034C515.071 203.935 513.924 204.488 513.289 204.754C512.756 204.959 511.814 205.287 510.872 205.287C510.688 205.287 510.503 205.287 510.319 205.246C507.267 204.795 504.686 202.727 503.458 199.716L503.232 199.142C502.331 196.398 502.905 193.407 504.83 190.704L504.912 190.581C505.997 189.147 507.574 188.082 509.274 187.652C511.241 187.16 513.166 187.549 514.661 188.758C516.648 190.356 517.877 192.67 518.143 195.271C518.43 198.036 517.57 200.863 515.788 203.034H515.808Z" fill="black"/>
<path d="M426.916 185.48C421.263 181.732 413.008 183.145 408.932 188.573L408.85 188.675C406.085 192.382 405.696 196.868 407.703 201.599L407.99 202.234C409.362 204.979 412.558 208.42 417.064 209.034C421.304 209.628 425.216 208.727 428.677 206.372L426.404 203.197L423.987 204.16C421.754 205.348 419.296 205.614 417.084 204.876C414.77 204.098 412.988 202.296 412.025 199.776L411.472 198.322L413.029 198.261L431.647 197.585C432.651 192.874 430.746 188.02 426.875 185.459L426.916 185.48ZM426.363 194.451H425.461L412.496 194.553L412.353 193.591C412.21 192.669 412.476 191.686 413.09 190.785C413.602 190.027 414.36 189.331 415.261 188.737C416.777 187.774 419.091 186.955 421.078 187.569C422.348 187.958 423.311 188.511 424.13 189.31C425.072 190.211 425.933 191.399 426.24 193.017C426.301 193.366 426.363 194.451 426.363 194.451Z" fill="black"/>
<path d="M547.269 183.514H547.228C540.838 184.374 536.086 190.253 536.455 196.93C536.803 203.382 541.821 208.502 548.396 209.117L549.276 209.178C553.823 209.383 557.756 207.724 560.275 204.508L560.439 204.304C564.433 198.958 563.88 191.297 559.231 186.832L559.169 186.771C556.302 184.047 552.083 182.9 547.31 183.555L547.269 183.514ZM549.973 187.324C552.062 187.365 553.926 188.246 555.38 189.843C557.08 191.748 557.961 194.513 557.736 197.237C557.51 199.982 556.281 202.46 554.561 203.771C553.291 204.734 551.775 205.205 550.198 205.205C549.01 205.205 547.781 204.918 546.634 204.365H546.573C543.152 202.624 541.35 198.958 541.882 194.779L541.985 194.165C542.64 190.97 545.282 187.488 549.502 187.324H549.993H549.973Z" fill="black"/>
<path d="M489.734 183.862L489.365 199.756C489.324 201.293 488.505 202.706 487.071 203.771C485.945 204.59 484.491 205.123 483.262 205.184C483.2 205.184 483.139 205.184 483.077 205.184C481.889 205.184 480.558 204.754 479.493 204.037C478.674 203.484 477.322 202.276 477.301 200.309L477.117 184.087C475.233 183.371 473.389 183.35 471.628 184.026L471.771 200.924C471.874 202.911 472.713 204.959 474.024 206.515C475.479 208.215 477.322 209.158 479.268 209.158C479.309 209.158 479.35 209.158 479.391 209.158L493.278 208.891C493.421 208.891 493.79 208.809 494.22 208.605C494.404 208.502 494.568 208.42 494.691 208.318C494.752 208.277 494.773 208.256 494.793 208.236C494.793 208.175 494.814 208.134 494.834 208.072C494.855 207.908 494.875 207.724 494.875 207.519C494.875 207.171 494.875 206.823 494.875 206.495L494.752 184.067C493.011 183.268 491.209 183.207 489.734 183.883V183.862Z" fill="black"/>
<path d="M452.088 204.303L452.497 203.483C452.968 202.234 452.887 200.8 452.293 199.428C451.596 197.871 450.285 196.581 448.77 195.987L440.904 192.894C440.167 192.505 439.553 191.87 439.184 191.133C438.959 190.662 438.508 189.474 439.184 188.347C439.634 187.589 440.392 187.036 441.335 186.77C442.174 186.545 443.076 186.565 443.833 186.852L449.425 188.921C449.548 188.962 449.732 188.921 449.937 188.818C450.244 188.654 450.552 188.347 450.838 187.958C451.125 187.569 451.33 187.118 451.412 186.709C451.473 186.422 451.473 186.217 451.453 186.094C447.418 182.837 441.355 182.469 436.992 185.213C435.067 186.442 433.859 188.859 434.002 191.256C434.125 193.365 435.722 195.311 438.078 196.192H438.119C440.802 197.195 443.444 198.424 445.226 199.53C446.373 200.227 447.151 200.882 447.643 201.497C447.991 201.947 448.176 202.398 448.217 202.869C448.258 203.443 448.012 203.996 447.541 204.405C446.025 205.716 443.895 206.146 441.232 205.675C439.348 205.347 437.177 204.569 434.575 203.299C434.534 203.299 434.453 203.34 434.33 203.422C434.043 203.606 433.756 203.934 433.49 204.323C433.224 204.712 432.998 205.163 432.875 205.552C432.814 205.737 432.793 205.88 432.793 205.982C435.968 208.215 439.88 209.362 443.588 209.137C447.438 208.891 450.47 207.191 452.129 204.323L452.088 204.303Z" fill="black"/>
<path d="M453.522 184.497C453.399 185.152 453.46 185.685 453.522 185.91C453.563 186.033 453.747 186.32 454.423 186.852C454.914 187.242 455.488 187.631 456.061 187.999L456.676 188.409V188.983L456.983 200.268C457.086 204.017 458.192 206.577 460.301 207.908L460.711 208.154C463.189 209.506 465.79 209.219 467.101 208.932C468.084 208.727 469.027 208.379 469.744 207.929C470.419 207.519 470.706 207.171 470.788 207.007C470.788 206.966 470.788 206.905 470.788 206.823C470.788 206.638 470.747 206.413 470.686 206.167C470.583 205.676 470.399 205.184 470.276 204.938L470.133 204.692C469.805 204.16 469.477 204.037 469.211 203.955C468.74 203.832 468.166 203.914 467.45 204.017H467.347C466.651 204.139 465.77 204.262 464.951 204.057C464.439 203.935 463.968 203.689 463.599 203.341C463.21 202.972 462.902 202.48 462.698 201.866L462.636 201.661C461.366 197.995 461.653 194.697 462.165 191.666C462.37 190.396 462.902 189.454 463.783 188.757C464.562 188.163 465.483 187.877 466.159 187.672C466.937 187.426 467.491 187.262 467.941 186.975C468.392 186.689 468.658 186.299 468.801 185.705V185.46C468.842 185.214 468.801 184.763 468.617 184.272C468.535 184.026 468.433 183.801 468.33 183.678C467.409 183.596 466.343 183.514 465.381 183.289C464.787 183.166 464.275 182.981 463.865 182.777C463.292 182.49 462.862 182.121 462.595 181.67L462.472 181.404L461.919 176.017L457.229 175.854V178.496C457.208 179.684 456.881 180.749 456.266 181.63C455.713 182.428 454.914 183.084 453.911 183.575C453.911 183.575 453.87 183.637 453.788 183.76C453.686 183.944 453.604 184.21 453.542 184.497H453.522Z" fill="black"/>
<path d="M527.565 208.892C529.654 209.404 531.354 209.363 532.911 208.789L532.686 185.952C532.071 185.481 531.15 185.214 530.166 185.214C529.163 185.214 528.159 185.501 527.422 185.993L527.565 208.871V208.892Z" fill="black"/>
<path d="M567.833 205.941C567.649 205.368 567.198 204.856 566.604 204.569C566.153 204.364 565.416 204.18 564.453 204.569C563.163 205.102 562.61 206.576 563.122 208.092L563.327 208.563C563.511 208.87 563.921 209.178 564.453 209.362C565.129 209.608 565.887 209.608 566.522 209.362C567.751 208.87 568.304 207.437 567.833 205.962V205.941Z" fill="black"/>
<path d="M529.347 179.704C530.084 179.868 530.965 179.786 531.743 179.438L532.05 179.274C532.644 178.926 533.033 178.414 533.218 177.758C533.402 177.041 533.341 176.202 533.033 175.382C532.747 174.645 532.214 174.072 531.538 173.785C530.842 173.478 530.023 173.457 529.244 173.744L528.425 174.154C527.667 174.645 527.36 175.423 527.257 175.976C527.073 176.919 527.258 177.758 527.462 178.209L527.647 178.537C528.056 179.151 528.609 179.561 529.347 179.725V179.704Z" fill="black"/>
</svg>
